<svg width="135" height="161" viewBox="0 0 135 161" fill="none" xmlns="http://www.w3.org/2000/svg">
<path d="M130.184 151.338C130.184 120.453 130.184 76.744 130.184 45.922C130.184 44.5875 130.184 42.9752 130.184 41.6407V41.45C130.127 37.7493 129.681 34.1279 128.746 30.5467C126.002 19.763 119.163 10.4734 109.681 4.64995C99.0366 -1.57798 86.6618 -0.948496 75.5405 4.32618C65.6457 9.06703 56.1464 14.5924 47.1335 20.8493C31.5001 30.7313 26.8515 35.3738 14.984 35.3738C11.784 35.3738 11.784 38.9929 14.984 38.9929H44.0195C54.2404 39.1657 64.3223 41.3918 73.6657 45.5386V45.5386C76.7557 46.8589 75.9872 48.053 72.7082 47.3185C65.601 45.7265 57.7663 45.5463 48.3815 47.2544C37.9247 49.3896 28.2469 54.3328 20.3876 61.5533C12.2913 67.9961 6.36843 76.7695 3.41962 86.6874C-0.969155 99.8701 -0.24277 114.221 5.45469 126.893C11.1522 139.565 21.4045 149.633 34.178 155.099C42.13 158.377 51.2672 160.138 59.7144 160.138C68.1616 160.138 76.6088 157.461 79.6077 156.163C86.6588 153.111 91.5054 149.928 95.4346 146.078C101.577 140.059 112.584 142.738 112.584 151.338V151.338C112.584 152.256 112.584 153.287 112.584 154.353C112.584 157.568 115.19 160.174 118.404 160.174H133.384C134.268 160.174 134.984 159.457 134.984 158.574V158.574V158.574C134.984 157.67 134.224 156.956 133.397 156.594C131.628 155.822 130.184 153.821 130.184 151.338ZM79.6077 147.696C62.7033 152.017 48.9447 148.077 36.4253 136.288C17.3602 118.208 14.3733 88.022 30.7693 68.0036C35.3805 61.9461 41.5154 57.2196 48.5487 54.3059C55.5819 51.3921 63.2619 50.3953 70.806 51.417C93.0486 53.5777 113.067 77.2502 112.686 104.799C112.654 126.692 93.8747 144.9 79.6077 147.696ZM112.584 51.3738V51.3738C112.458 61.5722 100.978 64.6656 94.0973 57.1369C91.2427 54.0135 88.0323 51.153 84.3422 48.8114C72.0651 40.475 60.2236 36.2687 45.384 36.1738C42.184 36.1534 42.184 35.3738 43.784 32.9738C54.2698 17.976 71.3779 7.34482 91.4916 10.9672C96.5757 11.9668 101.244 14.4648 104.897 18.14C108.549 21.8151 110.758 26.0109 111.726 31.101C112.213 33.2949 112.5 35.5282 112.584 37.7738C112.584 42.8261 112.642 46.7084 112.584 51.3738Z" fill="#C0CCE5"/>
</svg>
