<?xml version="1.0" encoding="UTF-8"?>
<svg id="Layer_2" data-name="Layer 2" xmlns="http://www.w3.org/2000/svg" viewBox="0 0 12.12 13.96">
  <defs>
    <style>
      .cls-1 {
        opacity: 1;
        fill: #E1E3FC;
      }
    </style>
  </defs>
  <g id="Layer_1-2" data-name="Layer 1">
    <path class="cls-1" d="M12.08,5.84c0-2,0-3.9-1.6-5.2C7.36-1.83-2.5,3.67,4.18,3.24c1.2,0,1.9.3,1.9.5s-1.1.2-2.2.5c-.69.21-1.33.55-1.89.98s-1.01.93-1.35,1.51c-2.44,4.22,2.58,8.94,7.34,6.61,1.88-.72,4.15,1.94,4.15-.37,0-1.78-.05-7.13-.05-7.13ZM7.38,12.94C3.11,14.11,0,8.37,3.28,5.54c5.4-4.4,10.3,5.3,4.1,7.4h0ZM10.07,2.1c.47.88.85,2.84-.49,3.13-1.03.09-1.88-.92-2.67-1.41-.82-.59-1.81-.87-2.85-.93-.27-.01-.59-.1-.65-.24-.05-.11.11-.31.22-.43.78-.62,1.97-1,2.96-1.24,1.21-.28,2.64-.05,3.4.98l.09.14Z"/>
  </g>
</svg>