<svg width="77" height="60" viewBox="0 0 77 60" fill="none" xmlns="http://www.w3.org/2000/svg">
<path d="M1.98898 15.8801H0.0618801L5.63565 0.700435H7.5331L13.1069 15.8801H11.1798L6.64367 3.1019H6.52508L1.98898 15.8801ZM2.70053 9.95052H10.4682V11.5811H2.70053V9.95052ZM19.7417 16.1172C18.793 16.1172 17.9555 15.8776 17.2291 15.3983C16.5027 14.914 15.9345 14.2321 15.5244 13.3526C15.1142 12.4681 14.9092 11.423 14.9092 10.2174C14.9092 9.02156 15.1142 7.98389 15.5244 7.10434C15.9345 6.22479 16.5052 5.54537 17.2365 5.06606C17.9678 4.58676 18.8128 4.3471 19.7714 4.3471C20.5126 4.3471 21.0981 4.47064 21.528 4.7177C21.9628 4.95982 22.2939 5.23654 22.5212 5.54784C22.7535 5.8542 22.9338 6.1062 23.0623 6.30385H23.2105V0.700435H24.9597V15.8801H23.2698V14.1309H23.0623C22.9338 14.3384 22.751 14.6003 22.5138 14.9165C22.2766 15.2278 21.9381 15.507 21.4984 15.7541C21.0586 15.9962 20.473 16.1172 19.7417 16.1172ZM19.9789 14.5459C20.6806 14.5459 21.2735 14.3631 21.7578 13.9974C22.242 13.6268 22.6102 13.1154 22.8622 12.4632C23.1142 11.806 23.2402 11.0475 23.2402 10.1877C23.2402 9.3378 23.1166 8.59414 22.8696 7.95671C22.6225 7.31435 22.2569 6.81528 21.7726 6.4595C21.2884 6.09879 20.6905 5.91843 19.9789 5.91843C19.2377 5.91843 18.6201 6.10867 18.1259 6.48915C17.6368 6.86469 17.2686 7.37611 17.0216 8.02342C16.7794 8.66579 16.6584 9.38722 16.6584 10.1877C16.6584 10.9981 16.7819 11.7343 17.029 12.3965C17.281 13.0537 17.6516 13.5774 18.1408 13.9678C18.6349 14.3532 19.2476 14.5459 19.9789 14.5459ZM30.3642 9.03144V15.8801H28.615V4.49534H30.3049V6.27421H30.4532C30.72 5.69608 31.1252 5.23159 31.6687 4.88076C32.2123 4.52499 32.9139 4.3471 33.7737 4.3471C34.5445 4.3471 35.219 4.50523 35.7972 4.82147C36.3753 5.13277 36.825 5.60713 37.1461 6.24456C37.4673 6.87704 37.6279 7.67753 37.6279 8.64602V15.8801H35.8787V8.76461C35.8787 7.87024 35.6465 7.17352 35.182 6.67445C34.7175 6.17044 34.0801 5.91843 33.2697 5.91843C32.7113 5.91843 32.2123 6.03949 31.7725 6.28162C31.3377 6.52374 30.9942 6.87704 30.7422 7.34152C30.4902 7.806 30.3642 8.36931 30.3642 9.03144ZM44.3832 16.1469C43.6618 16.1469 43.0071 16.011 42.4191 15.7392C41.831 15.4625 41.3641 15.0648 41.0182 14.5459C40.6723 14.0221 40.4994 13.3897 40.4994 12.6485C40.4994 11.9962 40.6278 11.4675 40.8848 11.0623C41.1417 10.6522 41.4851 10.331 41.915 10.0988C42.3449 9.86652 42.8193 9.69358 43.3381 9.57993C43.8619 9.46134 44.3882 9.36745 44.9169 9.29827C45.6087 9.20933 46.1695 9.14262 46.5994 9.09815C47.0342 9.04874 47.3505 8.96721 47.5481 8.85356C47.7507 8.73991 47.852 8.54226 47.852 8.2606V8.20131C47.852 7.47 47.6519 6.90175 47.2516 6.49656C46.8563 6.09138 46.256 5.88879 45.4505 5.88879C44.6155 5.88879 43.9607 6.07161 43.4864 6.43727C43.012 6.80292 42.6785 7.19328 42.4858 7.60835L40.8255 7.0154C41.122 6.32362 41.5173 5.78502 42.0114 5.3996C42.5105 5.00924 43.054 4.73747 43.642 4.58429C44.235 4.42616 44.818 4.3471 45.3912 4.3471C45.7569 4.3471 46.1769 4.39158 46.6513 4.48052C47.1306 4.56452 47.5926 4.73994 48.0373 5.00677C48.487 5.2736 48.86 5.67631 49.1565 6.21491C49.453 6.75351 49.6012 7.47494 49.6012 8.37919V15.8801H47.852V14.3384H47.7631C47.6445 14.5854 47.4468 14.8498 47.1701 15.1315C46.8934 15.4131 46.5253 15.6528 46.0657 15.8504C45.6062 16.0481 45.0453 16.1469 44.3832 16.1469ZM44.65 14.5756C45.3418 14.5756 45.9249 14.4397 46.3993 14.1679C46.8786 13.8961 47.2393 13.5453 47.4814 13.1154C47.7285 12.6855 47.852 12.2334 47.852 11.759V10.1581C47.7779 10.247 47.6148 10.3285 47.3628 10.4026C47.1157 10.4718 46.8292 10.5336 46.503 10.5879C46.1818 10.6374 45.8681 10.6818 45.5617 10.7214C45.2603 10.756 45.0157 10.7856 44.8279 10.8103C44.3733 10.8696 43.9484 10.966 43.5531 11.0994C43.1627 11.2278 42.8465 11.423 42.6044 11.6849C42.3672 11.9419 42.2486 12.2927 42.2486 12.7374C42.2486 13.3452 42.4734 13.8047 42.9231 14.116C43.3777 14.4224 43.9533 14.5756 44.65 14.5756ZM54.7518 9.03144V15.8801H53.0026V4.49534H54.6925V6.27421H54.8408C55.1076 5.69608 55.5128 5.23159 56.0563 4.88076C56.5999 4.52499 57.3015 4.3471 58.1613 4.3471C58.9322 4.3471 59.6067 4.50523 60.1848 4.82147C60.7629 5.13277 61.2126 5.60713 61.5338 6.24456C61.8549 6.87704 62.0155 7.67753 62.0155 8.64602V15.8801H60.2663V8.76461C60.2663 7.87024 60.0341 7.17352 59.5696 6.67445C59.1051 6.17044 58.4677 5.91843 57.6573 5.91843C57.0989 5.91843 56.5999 6.03949 56.1601 6.28162C55.7253 6.52374 55.3819 6.87704 55.1298 7.34152C54.8778 7.806 54.7518 8.36931 54.7518 9.03144ZM66.9623 0.700435V2.03458C66.9623 2.43977 66.8882 2.87213 66.74 3.33167C66.5967 3.78627 66.3842 4.22851 66.1025 4.65841C65.8258 5.08336 65.4898 5.45395 65.0945 5.77019L64.1458 4.99935C64.4571 4.55464 64.7264 4.09263 64.9537 3.61332C65.1859 3.12908 65.302 2.61271 65.302 2.06423V0.700435H66.9623ZM75.9356 7.04505L74.3643 7.48976C74.2655 7.22787 74.1197 6.9734 73.927 6.72633C73.7392 6.47433 73.4823 6.26679 73.1562 6.10373C72.83 5.94067 72.4125 5.85914 71.9036 5.85914C71.2068 5.85914 70.6262 6.01973 70.1618 6.34091C69.7022 6.65716 69.4724 7.05987 69.4724 7.54906C69.4724 7.98389 69.6306 8.32731 69.9468 8.57932C70.2631 8.83132 70.7572 9.04133 71.4292 9.20933L73.1191 9.6244C74.137 9.87146 74.8955 10.2495 75.3946 10.7584C75.8936 11.2624 76.1432 11.9122 76.1432 12.7078C76.1432 13.36 75.9554 13.9431 75.5799 14.457C75.2093 14.9709 74.6904 15.3761 74.0234 15.6725C73.3563 15.969 72.5805 16.1172 71.696 16.1172C70.5348 16.1172 69.5737 15.8652 68.8128 15.3612C68.0518 14.8572 67.5701 14.121 67.3675 13.1525L69.0277 12.7374C69.1859 13.3501 69.4848 13.8097 69.9246 14.116C70.3693 14.4224 70.9499 14.5756 71.6664 14.5756C72.4817 14.5756 73.129 14.4026 73.6083 14.0567C74.0925 13.7059 74.3347 13.2859 74.3347 12.7967C74.3347 12.4014 74.1963 12.0703 73.9196 11.8035C73.6429 11.5317 73.2179 11.3291 72.6448 11.1957L70.7473 10.751C69.7047 10.5039 68.9388 10.121 68.4496 9.60216C67.9654 9.07839 67.7232 8.42367 67.7232 7.638C67.7232 6.99563 67.9036 6.42739 68.2643 5.93326C68.63 5.43913 69.1266 5.05124 69.7541 4.76958C70.3866 4.48793 71.1031 4.3471 71.9036 4.3471C73.0302 4.3471 73.9147 4.59417 74.557 5.0883C75.2043 5.58243 75.6639 6.23468 75.9356 7.04505ZM16.8055 36.8801H12.1212V21.7004H17.013C18.4855 21.7004 19.7456 22.0043 20.7931 22.6121C21.8407 23.2149 22.6436 24.0821 23.202 25.2137C23.7604 26.3403 24.0395 27.6893 24.0395 29.2606C24.0395 30.8418 23.7579 32.2031 23.1946 33.3446C22.6313 34.4811 21.811 35.3557 20.7338 35.9684C19.6566 36.5762 18.3472 36.8801 16.8055 36.8801ZM13.9593 35.2494H16.6869C17.942 35.2494 18.9821 35.0073 19.8073 34.5231C20.6325 34.0388 21.2477 33.3495 21.6529 32.4551C22.0581 31.5608 22.2607 30.4959 22.2607 29.2606C22.2607 28.0352 22.0606 26.9802 21.6603 26.0957C21.2601 25.2063 20.6622 24.5244 19.8666 24.05C19.0711 23.5707 18.0804 23.3311 16.8944 23.3311H13.9593V35.2494ZM31.4503 37.1172C30.3533 37.1172 29.4071 36.8751 28.6115 36.3909C27.8209 35.9017 27.2107 35.2198 26.7808 34.3452C26.3558 33.4656 26.1433 32.4428 26.1433 31.2766C26.1433 30.1105 26.3558 29.0827 26.7808 28.1933C27.2107 27.2989 27.8086 26.6022 28.5745 26.1031C29.3453 25.5991 30.2446 25.3471 31.2724 25.3471C31.8654 25.3471 32.4509 25.4459 33.029 25.6436C33.6072 25.8412 34.1334 26.1624 34.6078 26.6071C35.0821 27.0469 35.4601 27.63 35.7418 28.3563C36.0234 29.0827 36.1643 29.9771 36.1643 31.0395V31.7807H27.3886V30.2686H34.3854C34.3854 29.6263 34.2569 29.0531 34 28.5491C33.748 28.045 33.3873 27.6473 32.9179 27.3557C32.4534 27.0642 31.9049 26.9184 31.2724 26.9184C30.5757 26.9184 29.9728 27.0914 29.4639 27.4373C28.9599 27.7782 28.572 28.2229 28.3002 28.7714C28.0284 29.3199 27.8926 29.9079 27.8926 30.5355V31.5435C27.8926 32.4033 28.0408 33.1321 28.3373 33.73C28.6387 34.323 29.0562 34.7751 29.5899 35.0864C30.1236 35.3927 30.7437 35.5459 31.4503 35.5459C31.9098 35.5459 32.3249 35.4817 32.6955 35.3532C33.071 35.2198 33.3947 35.0221 33.6665 34.7603C33.9382 34.4934 34.1482 34.1624 34.2965 33.7671L35.9864 34.2414C35.8085 34.8146 35.5096 35.3186 35.0895 35.7535C34.6695 36.1833 34.1507 36.5194 33.533 36.7615C32.9154 36.9987 32.2211 37.1172 31.4503 37.1172ZM46.6806 28.045L45.1093 28.4898C45.0105 28.2279 44.8647 27.9734 44.672 27.7263C44.4842 27.4743 44.2273 27.2668 43.9011 27.1037C43.575 26.9407 43.1575 26.8591 42.6485 26.8591C41.9518 26.8591 41.3712 27.0197 40.9067 27.3409C40.4472 27.6572 40.2174 28.0599 40.2174 28.5491C40.2174 28.9839 40.3755 29.3273 40.6918 29.5793C41.008 29.8313 41.5021 30.0413 42.1742 30.2093L43.8641 30.6244C44.882 30.8715 45.6405 31.2495 46.1395 31.7584C46.6386 32.2624 46.8882 32.9122 46.8882 33.7078C46.8882 34.36 46.7004 34.9431 46.3248 35.457C45.9542 35.9709 45.4354 36.3761 44.7683 36.6725C44.1013 36.969 43.3255 37.1172 42.441 37.1172C41.2798 37.1172 40.3187 36.8652 39.5578 36.3612C38.7968 35.8572 38.315 35.121 38.1124 34.1525L39.7727 33.7374C39.9308 34.3501 40.2298 34.8097 40.6695 35.116C41.1143 35.4224 41.6949 35.5756 42.4113 35.5756C43.2267 35.5756 43.874 35.4026 44.3533 35.0567C44.8375 34.7059 45.0796 34.2859 45.0796 33.7967C45.0796 33.4014 44.9413 33.0703 44.6646 32.8035C44.3879 32.5317 43.9629 32.3291 43.3897 32.1957L41.4923 31.751C40.4497 31.5039 39.6838 31.121 39.1946 30.6022C38.7103 30.0784 38.4682 29.4237 38.4682 28.638C38.4682 27.9956 38.6486 27.4274 39.0093 26.9333C39.3749 26.4391 39.8715 26.0512 40.4991 25.7696C41.1316 25.4879 41.848 25.3471 42.6485 25.3471C43.7751 25.3471 44.6596 25.5942 45.302 26.0883C45.9493 26.5824 46.4088 27.2347 46.6806 28.045ZM49.3125 36.8801V25.4953H51.0617V36.8801H49.3125ZM50.2019 23.5979C49.861 23.5979 49.567 23.4818 49.3199 23.2495C49.0778 23.0173 48.9567 22.7381 48.9567 22.412C48.9567 22.0859 49.0778 21.8067 49.3199 21.5744C49.567 21.3422 49.861 21.2261 50.2019 21.2261C50.5429 21.2261 50.8344 21.3422 51.0766 21.5744C51.3236 21.8067 51.4472 22.0859 51.4472 22.412C51.4472 22.7381 51.3236 23.0173 51.0766 23.2495C50.8344 23.4818 50.5429 23.5979 50.2019 23.5979ZM58.6522 41.3865C57.8073 41.3865 57.0809 41.2778 56.4731 41.0604C55.8653 40.8479 55.3588 40.5663 54.9537 40.2154C54.5534 39.8695 54.2347 39.4989 53.9975 39.1036L55.391 38.1253C55.5491 38.3328 55.7492 38.57 55.9913 38.8368C56.2335 39.1086 56.5645 39.3433 56.9845 39.5409C57.4095 39.7435 57.9654 39.8448 58.6522 39.8448C59.5713 39.8448 60.3298 39.6225 60.9277 39.1778C61.5256 38.733 61.8245 38.0363 61.8245 37.0876V34.7751H61.6763C61.5478 34.9826 61.365 35.2396 61.1278 35.5459C60.8956 35.8473 60.5596 36.1166 60.1198 36.3538C59.6849 36.5861 59.0969 36.7022 58.3557 36.7022C57.4367 36.7022 56.6115 36.4848 55.8802 36.0499C55.1538 35.6151 54.5781 34.9826 54.1532 34.1525C53.7332 33.3223 53.5232 32.3143 53.5232 31.1284C53.5232 29.9623 53.7282 28.9468 54.1383 28.0821C54.5485 27.2124 55.1192 26.5404 55.8505 26.0661C56.5818 25.5868 57.4268 25.3471 58.3854 25.3471C59.1266 25.3471 59.7146 25.4706 60.1494 25.7177C60.5892 25.9598 60.9252 26.2365 61.1574 26.5478C61.3946 26.8542 61.5775 27.1062 61.7059 27.3039H61.8838V25.4953H63.5737V37.2062C63.5737 38.1846 63.3514 38.9801 62.9067 39.5928C62.4669 40.2105 61.8739 40.6626 61.1278 40.9492C60.3866 41.2408 59.5614 41.3865 58.6522 41.3865ZM58.5929 35.1309C59.2946 35.1309 59.8875 34.9703 60.3718 34.6491C60.856 34.3279 61.2242 33.8659 61.4762 33.263C61.7282 32.6602 61.8542 31.9388 61.8542 31.0988C61.8542 30.2785 61.7306 29.5546 61.4836 28.9271C61.2365 28.2995 60.8709 27.8079 60.3866 27.4521C59.9024 27.0963 59.3045 26.9184 58.5929 26.9184C57.8517 26.9184 57.2341 27.1062 56.7399 27.4817C56.2507 27.8573 55.8826 28.3613 55.6356 28.9938C55.3934 29.6263 55.2724 30.3279 55.2724 31.0988C55.2724 31.8894 55.3959 32.5886 55.643 33.1963C55.895 33.7992 56.2656 34.2735 56.7548 34.6194C57.2489 34.9604 57.8616 35.1309 58.5929 35.1309ZM68.3162 30.0314V36.8801H66.567V25.4953H68.2569V27.2742H68.4051C68.672 26.6961 69.0771 26.2316 69.6207 25.8808C70.1642 25.525 70.8659 25.3471 71.7257 25.3471C72.4965 25.3471 73.171 25.5052 73.7491 25.8215C74.3273 26.1328 74.7769 26.6071 75.0981 27.2446C75.4193 27.877 75.5799 28.6775 75.5799 29.646V36.8801H73.8307V29.7646C73.8307 28.8702 73.5984 28.1735 73.1339 27.6744C72.6695 27.1704 72.032 26.9184 71.2217 26.9184C70.6633 26.9184 70.1642 27.0395 69.7244 27.2816C69.2896 27.5237 68.9462 27.877 68.6942 28.3415C68.4422 28.806 68.3162 29.3693 68.3162 30.0314ZM34.2435 43.7004V58.8801H32.4647L24.193 46.9617H24.0447V58.8801H22.2066V43.7004H23.9854L32.2868 55.6485H32.435V43.7004H34.2435ZM37.6845 58.8801V47.4953H39.4337V58.8801H37.6845ZM38.574 45.5979C38.233 45.5979 37.939 45.4818 37.6919 45.2495C37.4498 45.0173 37.3288 44.7381 37.3288 44.412C37.3288 44.0859 37.4498 43.8067 37.6919 43.5744C37.939 43.3422 38.233 43.2261 38.574 43.2261C38.9149 43.2261 39.2065 43.3422 39.4486 43.5744C39.6956 43.8067 39.8192 44.0859 39.8192 44.412C39.8192 44.7381 39.6956 45.0173 39.4486 45.2495C39.2065 45.4818 38.9149 45.5979 38.574 45.5979ZM47.2626 59.1172C46.1953 59.1172 45.2762 58.8652 44.5054 58.3612C43.7345 57.8572 43.1416 57.163 42.7265 56.2785C42.3114 55.394 42.1039 54.3835 42.1039 53.247C42.1039 52.0907 42.3164 51.0704 42.7413 50.1859C43.1712 49.2964 43.7691 48.6022 44.535 48.1031C45.3059 47.5991 46.2052 47.3471 47.233 47.3471C48.0334 47.3471 48.7549 47.4953 49.3972 47.7918C50.0396 48.0883 50.5658 48.5034 50.976 49.037C51.3861 49.5707 51.6406 50.1933 51.7394 50.9048H49.9902C49.8568 50.386 49.5603 49.9265 49.1008 49.5262C48.6462 49.121 48.0334 48.9184 47.2626 48.9184C46.5807 48.9184 45.9828 49.0963 45.4689 49.4521C44.96 49.8029 44.5622 50.2995 44.2756 50.9419C43.9939 51.5793 43.8531 52.3279 43.8531 53.1877C43.8531 54.0673 43.9915 54.8332 44.2682 55.4854C44.5498 56.1377 44.9451 56.6441 45.4541 57.0048C45.968 57.3656 46.5708 57.5459 47.2626 57.5459C47.7172 57.5459 48.1298 57.4669 48.5004 57.3087C48.871 57.1506 49.1848 56.9233 49.4417 56.6268C49.6987 56.3304 49.8815 55.9746 49.9902 55.5595H51.7394C51.6406 56.2315 51.396 56.8368 51.0056 57.3754C50.6202 57.9091 50.1088 58.3341 49.4714 58.6503C48.8389 58.9616 48.1026 59.1172 47.2626 59.1172ZM56.0457 52.0314V58.8801H54.2965V43.7004H56.0457V49.2742H56.194C56.4608 48.6862 56.861 48.2192 57.3947 47.8734C57.9333 47.5225 58.6498 47.3471 59.5442 47.3471C60.3199 47.3471 60.9994 47.5028 61.5824 47.8141C62.1655 48.1204 62.6176 48.5923 62.9388 49.2297C63.265 49.8622 63.428 50.6676 63.428 51.646V58.8801H61.6788V51.7646C61.6788 50.8604 61.4441 50.1612 60.9747 49.667C60.5102 49.168 59.8654 48.9184 59.0402 48.9184C58.467 48.9184 57.9531 49.0395 57.4985 49.2816C57.0488 49.5237 56.693 49.877 56.4312 50.3415C56.1742 50.806 56.0457 51.3693 56.0457 52.0314ZM71.4014 59.1172C70.3044 59.1172 69.3582 58.8751 68.5626 58.3909C67.772 57.9017 67.1618 57.2198 66.7319 56.3452C66.3069 55.4656 66.0945 54.4428 66.0945 53.2766C66.0945 52.1105 66.3069 51.0827 66.7319 50.1933C67.1618 49.2989 67.7597 48.6022 68.5256 48.1031C69.2964 47.5991 70.1957 47.3471 71.2235 47.3471C71.8165 47.3471 72.402 47.4459 72.9801 47.6436C73.5583 47.8412 74.0845 48.1624 74.5589 48.6071C75.0332 49.0469 75.4113 49.63 75.6929 50.3563C75.9746 51.0827 76.1154 51.9771 76.1154 53.0395V53.7807H67.3397V52.2686H74.3365C74.3365 51.6263 74.2081 51.0531 73.9511 50.5491C73.6991 50.045 73.3384 49.6473 72.869 49.3557C72.4045 49.0642 71.856 48.9184 71.2235 48.9184C70.5268 48.9184 69.924 49.0914 69.415 49.4373C68.911 49.7782 68.5231 50.2229 68.2513 50.7714C67.9796 51.3199 67.8437 51.9079 67.8437 52.5355V53.5435C67.8437 54.4033 67.9919 55.1321 68.2884 55.73C68.5898 56.323 69.0074 56.7751 69.541 57.0864C70.0747 57.3927 70.6948 57.5459 71.4014 57.5459C71.8609 57.5459 72.276 57.4817 72.6466 57.3532C73.0221 57.2198 73.3458 57.0221 73.6176 56.7603C73.8893 56.4934 74.0993 56.1624 74.2476 55.7671L75.9375 56.2414C75.7596 56.8146 75.4607 57.3186 75.0407 57.7535C74.6207 58.1833 74.1018 58.5194 73.4842 58.7615C72.8665 58.9987 72.1722 59.1172 71.4014 59.1172Z" fill="#E1E3FC"/>
</svg>
