<svg width="51" height="51" viewBox="0 0 51 51" fill="none" xmlns="http://www.w3.org/2000/svg">
    <path id="Vector"
        d="M49.1838 23.9954H32.9458C31.3589 23.9954 30.5635 22.0764 31.6872 20.9546L43.1685 9.4733C43.6786 8.96324 43.6786 8.13459 43.1685 7.62648C42.6585 7.11641 41.8299 7.11641 41.3198 7.62648L29.8385 19.1078C28.7167 20.2296 26.7977 19.4361 26.7977 17.8473V1.60927C26.7977 0.886195 26.2133 0.30188 25.4902 0.30188C24.7672 0.30188 24.1828 0.886195 24.1828 1.60927V17.8473C24.1828 19.4342 22.2637 20.2296 21.142 19.1078L9.66065 7.62648C9.15059 7.11641 8.32199 7.11641 7.81192 7.62648C7.30186 8.13654 7.30186 8.96324 7.81192 9.4733L19.2933 20.9546C20.415 22.0764 19.6216 23.9954 18.0347 23.9954H1.79668C1.07555 23.9954 0.489258 24.5798 0.489258 25.3029C0.489258 26.026 1.0736 26.6103 1.79668 26.6103H18.0347C19.6216 26.6103 20.417 28.5294 19.2933 29.6511L7.81192 41.1325C7.30186 41.6425 7.30186 42.4692 7.81192 42.9792C8.32199 43.4893 9.14864 43.4893 9.66065 42.9792L21.142 31.4979C22.2637 30.3762 24.1828 31.1696 24.1828 32.7564V48.9945C24.1828 49.7156 24.7672 50.3019 25.4902 50.3019C26.2133 50.3019 26.7977 49.7156 26.7977 48.9945V32.7564C26.7977 31.1696 28.7167 30.3742 29.8385 31.4959L41.3198 42.9773C41.8299 43.4873 42.6565 43.4873 43.1685 42.9773C43.6786 42.4672 43.6786 41.6386 43.1685 41.1305L31.6872 29.6492C30.5655 28.5274 31.3589 26.6083 32.9458 26.6083H49.1838C49.9049 26.6083 50.4912 26.024 50.4912 25.3009C50.4912 24.5778 49.9069 23.9935 49.1838 23.9935V23.9954Z"
        fill="#E1E3FC" />
</svg>